<svg aria-hidden="true" style="position: absolute; width: 0; height: 0; overflow: hidden;" version="1.1" xmlns="http://www.w3.org/2000/svg" xmlns:xlink="http://www.w3.org/1999/xlink">
<defs>
<symbol id="advantage-box" viewBox="0 0 32 32">
<path fill="#ffb800" d="M30.733 7.061l-14.529-7.014c-0.060-0.029-0.13-0.047-0.204-0.047s-0.144 0.017-0.207 0.048l0.003-0.001-14.529 7.014c-0.158 0.078-0.265 0.237-0.265 0.422 0 0 0 0 0 0v0 17.034c0 0.18 0.103 0.344 0.265 0.422l14.529 7.014c0.060 0.029 0.13 0.047 0.204 0.047s0.144-0.017 0.207-0.048l-0.003 0.001 14.529-7.014c0.158-0.078 0.265-0.237 0.265-0.422v0-17.034c0-0 0-0 0-0 0-0.185-0.107-0.345-0.262-0.421l-0.003-0.001zM16 0.989l13.451 6.494-3.899 1.882c-0.023-0.018-0.049-0.035-0.077-0.049l-0.003-0.001-13.36-6.449 3.887-1.877zM11.054 3.396l13.432 6.484-2.751 1.328-13.426-6.482 2.745-1.331zM24.8 10.769v4.909l-2.57 1.24v-4.909l2.57-1.24zM30.060 24.223l-13.592 6.561v-15.993l3.242-1.565c0.154-0.079 0.258-0.237 0.258-0.419 0-0.259-0.21-0.469-0.469-0.469-0.072 0-0.139 0.016-0.2 0.045l0.003-0.001-3.303 1.595-1.3-0.628c-0.059-0.028-0.127-0.045-0.2-0.045-0.259 0-0.469 0.21-0.469 0.469 0 0.183 0.105 0.342 0.258 0.419l0.003 0.001 1.239 0.598v15.993l-13.592-6.561v-15.993l10.35 4.997c0.059 0.030 0.129 0.047 0.203 0.047v0c0 0 0 0 0 0 0.259 0 0.469-0.21 0.469-0.469 0-0.185-0.107-0.345-0.262-0.421l-0.003-0.001-10.148-4.899 4.657-2.248 14.081 6.798c0.002 0.003 0.004 0.005 0.006 0.008v5.625c0 0.259 0.21 0.469 0.469 0.469 0.074 0 0.144-0.017 0.206-0.048l-0.003 0.001 3.507-1.693c0.158-0.078 0.265-0.237 0.265-0.422 0 0 0 0 0-0v0-5.656l4.323-2.087v15.993z"></path>
<path fill="#ffb800" d="M5.808 22.405l-2.132-1.029c-0.058-0.027-0.126-0.044-0.197-0.044-0.259 0-0.469 0.21-0.469 0.469 0 0.182 0.104 0.34 0.256 0.418l0.003 0.001 2.132 1.029c0.060 0.029 0.13 0.047 0.204 0.047 0.185 0 0.345-0.107 0.421-0.262l0.001-0.003c0.029-0.060 0.047-0.13 0.047-0.204 0-0.185-0.107-0.344-0.262-0.421l-0.003-0.001zM7.77 21.128l-4.092-1.975c-0.060-0.029-0.13-0.047-0.204-0.047-0.259 0-0.469 0.21-0.469 0.469 0 0.185 0.107 0.345 0.262 0.421l0.003 0.001 4.092 1.975c0.060 0.029 0.13 0.047 0.204 0.047 0.185 0 0.345-0.107 0.421-0.262l0.001-0.003c0.029-0.060 0.047-0.13 0.047-0.204 0-0.185-0.107-0.345-0.262-0.421l-0.003-0.001z"></path>
</symbol>
<symbol id="advantage-checked" viewBox="0 0 32 32">
<path fill="#ffb800" d="M16 32c-0.001 0-0.001 0-0.002 0-0.159 0-0.308-0.038-0.441-0.104l0.006 0.003c-6.326-3.080-11.563-6.404-11.563-15.899v-11c0-0.421 0.263-0.796 0.658-0.939l11-4c0.221-0.080 0.463-0.080 0.684 0l11 4c0.396 0.144 0.658 0.519 0.658 0.94v11c0 9.494-5.236 12.819-11.563 15.899-0.127 0.064-0.277 0.102-0.435 0.102-0.001 0-0.001 0-0.002 0h0zM6 5.7v10.3c0 7.46 3.367 10.594 10 13.885 6.633-3.291 10-6.425 10-13.885v-10.3l-10-3.636-10 3.636z"></path>
<path fill="#ffb800" d="M15.293 20l-4.707-4.707 1.414-1.414 3.293 3.293 6.293-6.293 1.414 1.414-7.707 7.707z"></path>
</symbol>
<symbol id="advantage-credit-card" viewBox="0 0 32 32">
<path fill="#ffb800" d="M27.788 3.141h-19.226c-2.322 0-4.212 1.89-4.212 4.212v0.569h-0.138c-2.322 0-4.212 1.89-4.212 4.212v12.514c0 2.322 1.89 4.212 4.212 4.212h19.226c2.322 0 4.212-1.89 4.212-4.212v-0.569h0.138c2.322 0 4.212-1.89 4.212-4.212v-12.514c-0-2.322-1.89-4.212-4.212-4.212zM25.775 24.647c0 1.289-1.048 2.337-2.337 2.337h-19.225c-1.289 0-2.337-1.048-2.337-2.337v-5.569h23.9v5.569zM25.775 17.203h-23.9v-2.625h23.9v2.625zM25.775 12.703h-23.9v-0.569c0-1.289 1.048-2.337 2.337-2.337h19.225c1.289 0 2.337 1.048 2.337 2.337v0.569zM30.125 19.866c0 1.289-1.048 2.337-2.337 2.337h-0.138v-10.069c0-2.322-1.89-4.212-4.212-4.212h-17.212v-0.569c0-1.289 1.048-2.337 2.337-2.337h19.226c1.289 0 2.337 1.048 2.337 2.337v12.514z"></path>
<path fill="#ffb800" d="M4.542 21.953h8.25v1.875h-8.25v-1.875zM19.667 21.953h3.441v1.875h-3.441v-1.875z"></path>
</symbol>
<symbol id="advantage-operator" viewBox="0 0 32 32">
<path fill="#ffb800" d="M28.207 26.486c-0.071-4.349-4.518-5.634-7.764-6.572-0.379-0.109-0.743-0.215-1.084-0.32v-1.794c0.673-0.427 1.241-0.951 1.703-1.56l0.012-0.016h1.978c0.968 0 1.755-0.787 1.755-1.755v-2.125c0.115-0.262 0.183-0.567 0.183-0.888 0-0.001 0-0.002 0-0.002v0-0.661c0-0.001 0-0.001 0-0.002 0-0.321-0.067-0.626-0.188-0.902l0.006 0.014v-1.096c0-4.856-3.95-8.806-8.806-8.806-4.855 0-8.804 3.95-8.804 8.806v1.065c0 0.008 0.001 0.016 0.001 0.025-0.117 0.264-0.185 0.571-0.185 0.895 0 0.001 0 0.001 0 0.002v-0 0.661c0 1.249 1.016 2.265 2.264 2.265h0.516c0.358 1.716 1.411 3.179 2.85 4.081v1.794c-0.341 0.105-0.706 0.21-1.085 0.32-3.247 0.938-7.693 2.223-7.764 6.572v4.889c0 0.345 0.28 0.625 0.625 0.625h1.853c0.342-0.004 0.618-0.282 0.618-0.625s-0.276-0.621-0.618-0.625h-1.229v-4.249c0.026-1.517 0.723-2.655 2.193-3.58 0.97-0.61 2.156-1.045 3.325-1.409l1.51 2.942c0.168 0.328 0.599 0.439 0.906 0.233l0.673-0.454 0.578 2.173-0.99 4.343h-1.354c-0.34 0.007-0.613 0.284-0.613 0.625s0.273 0.618 0.612 0.625h15.7c0.345 0 0.625-0.28 0.625-0.625v0-4.879l-0-0.010zM20.096 21.115l0.125 0.036-1.080 2.107-2.022-1.363 1.713-1.156c0.398 0.125 0.821 0.248 1.265 0.376zM16 22.648l1.253 0.845-0.606 2.277h-1.296l-0.606-2.276 1.254-0.846zM16 21.141l-2.109-1.422v-1.316c0.627 0.229 1.351 0.361 2.105 0.361 0.001 0 0.002 0 0.003 0h-0c0.001 0 0.003 0 0.005 0 0.754 0 1.477-0.132 2.148-0.375l-0.044 0.014v1.315l-2.108 1.422zM21.092 8.921l-0.026-0.016c-1.282-0.816-2.39-1.521-4.126-1.025-0.021 0.006-0.037 0.011-0.052 0.017l0.004-0.001c-0.368 0.138-0.702 0.267-1.026 0.392-1.976 0.761-3.056 1.176-4.959 1.123v-0.5c0-2.808 2.284-5.092 5.092-5.092s5.092 2.284 5.092 5.092v0.012h0zM23.556 14.468c-0 0.279-0.226 0.505-0.505 0.505h-1.246c0.163-0.358 0.302-0.777 0.396-1.214l0.007-0.041h0.516c0 0 0 0 0.001 0 0.299 0 0.584-0.058 0.846-0.164l-0.015 0.005v0.909h-0zM23.739 11.453c0 0.56-0.455 1.016-1.014 1.016h-0.384c0-0.016 0.001-2.69 0.001-2.69h0.383c0.559 0 1.014 0.455 1.014 1.014v0.661zM9.275 12.469c-0.559 0-1.014-0.456-1.014-1.015v-0.661c0-0.559 0.455-1.014 1.014-1.014h0.383s0 2.675 0.001 2.69h-0.384zM9.67 8.529h-0.395c-0.292 0-0.571 0.056-0.828 0.157 0.065-4.111 3.428-7.436 7.553-7.436 4.126 0 7.49 3.325 7.555 7.437-0.245-0.1-0.53-0.158-0.829-0.158-0 0-0.001 0-0.001 0h-0.395c-0.197-3.321-2.961-5.962-6.33-5.962s-6.133 2.641-6.33 5.962zM10.946 13.030l-0-0.002c-0.023-0.182-0.037-0.392-0.037-0.606v-1.763c2.138 0.052 3.414-0.439 5.408-1.206 0.314-0.121 0.639-0.246 0.992-0.379 1.181-0.33 1.86 0.103 3.087 0.884 0.213 0.136 0.446 0.284 0.697 0.437v2.027c0 0.001 0 0.003 0 0.004 0 0.939-0.256 1.818-0.701 2.571l0.013-0.024h-4.404c-0.342 0.004-0.618 0.282-0.618 0.625s0.276 0.621 0.618 0.625h3.383c-0.9 0.802-2.085 1.29-3.383 1.29-2.602-0-4.753-1.962-5.054-4.484zM12.861 23.258l-1.082-2.107 0.124-0.036c0.443-0.128 0.867-0.251 1.265-0.376l1.714 1.156-2.021 1.363zM14.52 30.75l0.851-3.73h1.26l0.852 3.73h-2.962zM26.958 30.75h-8.193l-0.992-4.344 0.578-2.174 0.675 0.455c0.306 0.207 0.737 0.095 0.906-0.233l1.508-2.942c1.169 0.364 2.355 0.798 3.325 1.408 1.47 0.925 2.167 2.062 2.193 3.58v4.249h-0z"></path>
<path fill="#ffb800" d="M24.489 27.625h-3.15c-0.342 0.004-0.618 0.282-0.618 0.625s0.276 0.621 0.618 0.625h3.15c0.342-0.004 0.618-0.282 0.618-0.625s-0.276-0.621-0.618-0.625h-0zM9.077 30.75c-0.342 0.004-0.618 0.282-0.618 0.625s0.276 0.621 0.618 0.625h0.002c0.345 0 0.624-0.28 0.624-0.625s-0.281-0.625-0.626-0.625z"></path>
</symbol>
</defs>
</svg>
